<svg id="Capa_3" data-name="Capa 3" xmlns="http://www.w3.org/2000/svg" xmlns:xlink="http://www.w3.org/1999/xlink" viewBox="0 0 1920 1080"><defs><style>.cls-1{fill:none;}.cls-2{clip-path:url(#clip-path);}.cls-3{stroke:#575756;stroke-miterlimit:10;stroke-width:0.93px;fill:url(#Degradado_sin_nombre_56);}.cls-4{fill:#2f3a47;}</style><clipPath id="clip-path"><path class="cls-1" d="M479.69,369.59a10,10,0,1,1,10,10A10,10,0,0,1,479.69,369.59Zm480.14,56.92h0a20,20,0,0,0-40,0h0v17.12a10,10,0,0,1-20-.23v1.33a20,20,0,0,0-18.62-19.94c-.46,0-.92-.07-1.39-.07a20,20,0,0,0-20,20h0v61.6h0v73.11a59.92,59.92,0,0,1-59.92,59.92v.14A80,80,0,0,1,719.9,564V434.76A40,40,0,0,0,684.43,395c-.24,0-.48-.07-.73-.09l-1.28-.1c-.75-.05-1.5-.08-2.26-.09h-.76c-.76,0-1.51,0-2.26.09l-1.29.1-.73.09a40,40,0,0,0-35.46,39.74v.11h0V558.05c0-1.08,0-2.15-.11-3.21V564a79.9,79.9,0,0,1-79.93,75.48v-.14a59.92,59.92,0,0,1-59.91-59.92V414.71a10,10,0,0,0-20,0v5.93l-.07,16.42v37.72a10,10,0,0,1-20,0V434.37l0,0a30.05,30.05,0,0,0-60.1.37V559.43q0,3.24.14,6.45a160,160,0,0,0,54.09,113.66A161,161,0,0,0,476,696a159.33,159.33,0,0,0,77.18,23.41c2.14.08,4.29.14,6.45.14s4.31-.06,6.45-.14A160.17,160.17,0,0,0,679.59,665.5l.13-.16A161.17,161.17,0,0,0,716.21,696a159.27,159.27,0,0,0,77.18,23.41c2.14.08,4.28.14,6.44.14s4.31-.06,6.45-.14a159.31,159.31,0,0,0,77.07-23.34,161,161,0,0,0,22.4-16.56,159.11,159.11,0,0,0,14-14,161.37,161.37,0,0,0,16.6-22.39,159.22,159.22,0,0,0,22.33-63.66q.82-6.56,1.1-13.27c0-.1,0-.2,0-.3.08-2.14.14-4.28.14-6.45s-.06-4.51-.15-6.75Zm-80.06-22.85a20,20,0,1,0-20-20A20,20,0,0,0,879.77,403.66Z"/></clipPath><linearGradient id="Degradado_sin_nombre_56" x1="253.26" y1="360.6" x2="1037.07" y2="726.1" gradientUnits="userSpaceOnUse"><stop offset="0.01" stop-color="#8a4793"/><stop offset="0.45" stop-color="#257ec0"/><stop offset="1" stop-color="#40ac5c"/></linearGradient></defs><g class="cls-2"><rect class="cls-3" x="389.47" y="345.91" width="580.35" height="427.05"/></g><path class="cls-4" d="M1087.16,501.59A64.67,64.67,0,0,1,1133.22,520q19.42,18.42,20.94,44.89h.17v71.18h-31.66V568.75a35.65,35.65,0,1,0-35.51,35.67v31.66q-28,0-47.56-19.76-19.77-19.61-19.76-47.57,0-27.79,19.76-47.4Q1059.19,501.6,1087.16,501.59Z"/><path class="cls-4" d="M1376.75,501.59h31.65v67.16q0,28-19.59,47.57-19.77,19.75-47.57,19.76-31.32,0-51.42-24-20.27,24-51.42,24-28,0-47.56-19.76-19.77-19.61-19.77-47.57V501.59h31.66v67.16a35.59,35.59,0,1,0,71.18,0V501.59h31.66v67.16a35.44,35.44,0,0,0,35.67,35.67A34.23,34.23,0,0,0,1366.36,594a34.78,34.78,0,0,0,10.39-25.29Z"/><path class="cls-4" d="M1492.48,501.59q27.8,0,47.4,19.76,19.75,19.6,19.76,47.4v15.91h-99.15q9.88,19.77,32,19.76H1528v31.66h-39.53v-.17q-26.46-1.5-44.89-20.93a64.9,64.9,0,0,1-18.42-46.23q0-27.79,19.76-47.4Q1464.52,501.6,1492.48,501.59ZM1524.3,553q-9.88-19.77-31.82-19.77-22.11,0-32,19.77Z"/><path class="cls-4" d="M1020,684.24h2.56a1.24,1.24,0,0,1,.8.26,1.32,1.32,0,0,1,.42.58l8.79,27.49c.16.54.29,1,.39,1.54s.18,1,.28,1.47c.11-.49.24-1,.38-1.47s.3-1,.49-1.54l9.35-27.74a1,1,0,0,1,1-.77h1.37a1,1,0,0,1,1,.77l9.21,27.74a28.51,28.51,0,0,1,.84,3l.3-1.48a13.24,13.24,0,0,1,.44-1.56l8.82-27.49a1.15,1.15,0,0,1,1.19-.84h2.46l-11.67,34.84H1056c-.37,0-.64-.24-.8-.73l-9.56-28.3c-.12-.35-.22-.7-.32-1s-.17-.7-.24-1c-.07.35-.15.7-.23,1a10.34,10.34,0,0,1-.3,1l-9.66,28.3a.85.85,0,0,1-.84.73h-2.35Z"/><path class="cls-4" d="M1083.45,684.24H1086a1.24,1.24,0,0,1,.8.26,1.32,1.32,0,0,1,.42.58l8.79,27.49a12.89,12.89,0,0,1,.39,1.54c.09.49.19,1,.28,1.47.11-.49.24-1,.38-1.47s.31-1,.49-1.54l9.35-27.74a1,1,0,0,1,1-.77h1.37a1,1,0,0,1,1,.77l9.22,27.74c.34,1,.62,2.06.84,3,.09-.49.19-1,.29-1.48a13.24,13.24,0,0,1,.44-1.56l8.82-27.49a1.15,1.15,0,0,1,1.19-.84h2.46l-11.66,34.84h-2.46c-.37,0-.64-.24-.8-.73l-9.56-28.3c-.12-.35-.22-.7-.32-1s-.17-.7-.24-1c-.07.35-.15.7-.23,1a10.34,10.34,0,0,1-.3,1l-9.66,28.3a.85.85,0,0,1-.84.73h-2.35Z"/><path class="cls-4" d="M1146.9,684.24h2.56a1.25,1.25,0,0,1,.81.26,1.3,1.3,0,0,1,.41.58l8.79,27.49a12.89,12.89,0,0,1,.39,1.54c.09.49.19,1,.28,1.47.12-.49.24-1,.38-1.47s.31-1,.5-1.54l9.34-27.74a1,1,0,0,1,1-.77h1.36a1,1,0,0,1,1,.77l9.21,27.74a28.51,28.51,0,0,1,.84,3c.09-.49.19-1,.29-1.48a15.5,15.5,0,0,1,.44-1.56l8.83-27.49a1.13,1.13,0,0,1,1.19-.84H1197l-11.66,34.84h-2.45c-.38,0-.65-.24-.81-.73l-9.56-28.3c-.12-.35-.22-.7-.31-1s-.18-.7-.25-1c-.07.35-.15.7-.23,1s-.18.7-.29,1l-9.67,28.3a.85.85,0,0,1-.84.73h-2.35Z"/><path class="cls-4" d="M1211.51,716.38a3.18,3.18,0,0,1,.25-1.26,3.13,3.13,0,0,1,.68-1,3.58,3.58,0,0,1,1-.7,3.23,3.23,0,0,1,2.54,0,3.59,3.59,0,0,1,1,.7,3.54,3.54,0,0,1,.7,1,3.19,3.19,0,0,1,.26,1.26,3.11,3.11,0,0,1-.26,1.28,3.49,3.49,0,0,1-.7,1,3.18,3.18,0,0,1-1,.68,3.29,3.29,0,0,1-1.26.25,3.18,3.18,0,0,1-3.22-3.23Z"/><path class="cls-4" d="M1261.41,719.08a1.21,1.21,0,0,1-1.3-1l-.49-4.45a33.69,33.69,0,0,1-2.85,2.52,17.46,17.46,0,0,1-3,1.9,14.91,14.91,0,0,1-3.33,1.17,17.69,17.69,0,0,1-3.92.4,11.51,11.51,0,0,1-3.46-.52,8.37,8.37,0,0,1-3-1.62,7.87,7.87,0,0,1-2.09-2.78,9.71,9.71,0,0,1-.78-4.08,7.25,7.25,0,0,1,1.26-4.1,10.38,10.38,0,0,1,3.94-3.29,26,26,0,0,1,6.9-2.24,60.65,60.65,0,0,1,10.13-1v-3.64q0-4.83-2.08-7.44a7.44,7.44,0,0,0-6.18-2.61,11.61,11.61,0,0,0-4.29.7,15.1,15.1,0,0,0-3,1.54,17.91,17.91,0,0,0-2,1.54,2.14,2.14,0,0,1-1.3.7,1.14,1.14,0,0,1-1.05-.63l-.59-1a20.37,20.37,0,0,1,5.74-4.14,16.06,16.06,0,0,1,6.83-1.4,12.35,12.35,0,0,1,4.9.9,9.06,9.06,0,0,1,3.49,2.55,11.24,11.24,0,0,1,2.08,4,18.42,18.42,0,0,1,.7,5.27v22.69Zm-14-1.85a15,15,0,0,0,3.73-.44,13.58,13.58,0,0,0,3.15-1.23,15.27,15.27,0,0,0,2.72-1.87c.84-.72,1.67-1.51,2.48-2.35v-9.07a62.79,62.79,0,0,0-8.56.76,24.47,24.47,0,0,0-5.92,1.66,8.7,8.7,0,0,0-3.43,2.5,5.38,5.38,0,0,0-1.1,3.31,7.22,7.22,0,0,0,.58,3,5.81,5.81,0,0,0,3.73,3.31A8.79,8.79,0,0,0,1247.4,717.23Z"/><path class="cls-4" d="M1279.73,684.24h2.55a1.25,1.25,0,0,1,.81.26,1.32,1.32,0,0,1,.42.58l8.79,27.49a15,15,0,0,1,.38,1.54c.1.49.19,1,.28,1.47q.18-.74.39-1.47c.14-.49.3-1,.49-1.54l9.35-27.74a1,1,0,0,1,1-.77h1.36a1,1,0,0,1,1,.77l9.21,27.74a28.51,28.51,0,0,1,.84,3c.09-.49.19-1,.3-1.48a13.13,13.13,0,0,1,.43-1.56l8.83-27.49a1.13,1.13,0,0,1,1.19-.84h2.45l-11.66,34.84h-2.45c-.38,0-.64-.24-.81-.73l-9.56-28.3c-.11-.35-.22-.7-.31-1s-.18-.7-.25-1c-.07.35-.14.7-.22,1s-.19.7-.3,1l-9.67,28.3a.85.85,0,0,1-.84.73h-2.35Z"/><path class="cls-4" d="M1361.21,683.68a14.52,14.52,0,0,1,5.45,1,12.47,12.47,0,0,1,4.34,3,13.8,13.8,0,0,1,2.87,4.78,18.94,18.94,0,0,1,1,6.52,1.69,1.69,0,0,1-.23,1,.88.88,0,0,1-.71.28h-25.15v.66a23.84,23.84,0,0,0,.91,6.9,14,14,0,0,0,2.6,5,10.71,10.71,0,0,0,4.06,3,13.39,13.39,0,0,0,5.32,1,16.08,16.08,0,0,0,4.55-.58,16.88,16.88,0,0,0,3.24-1.3,19.12,19.12,0,0,0,2.09-1.29,2.29,2.29,0,0,1,1.12-.58.82.82,0,0,1,.7.35l.91,1.12a9.45,9.45,0,0,1-2.23,2,15.59,15.59,0,0,1-3.08,1.56,22.76,22.76,0,0,1-3.64,1,19.84,19.84,0,0,1-3.9.39,16.55,16.55,0,0,1-6.52-1.25,13.66,13.66,0,0,1-5-3.62,16.43,16.43,0,0,1-3.26-5.83,24.84,24.84,0,0,1-1.15-7.9,21.3,21.3,0,0,1,1.07-6.91,15.81,15.81,0,0,1,3.08-5.47,14.22,14.22,0,0,1,4.94-3.59A16.24,16.24,0,0,1,1361.21,683.68Zm0,2.49a13.27,13.27,0,0,0-4.82.83,10.66,10.66,0,0,0-3.69,2.42,12.26,12.26,0,0,0-2.52,3.78,17,17,0,0,0-1.27,4.94h22.93a15.34,15.34,0,0,0-.77-5,10.58,10.58,0,0,0-2.17-3.77,9.36,9.36,0,0,0-3.35-2.36A11.08,11.08,0,0,0,1361.26,686.17Z"/><path class="cls-4" d="M1393.71,716.38a3.36,3.36,0,0,1,.24-1.26,3.16,3.16,0,0,1,.69-1,3.58,3.58,0,0,1,1-.7,3.15,3.15,0,0,1,1.28-.26,3.19,3.19,0,0,1,1.26.26,3.41,3.41,0,0,1,1,.7,3.35,3.35,0,0,1,.7,1,3,3,0,0,1,.27,1.26,3,3,0,0,1-.27,1.28,3.31,3.31,0,0,1-.7,1,3,3,0,0,1-1,.68,3.37,3.37,0,0,1-1.26.25,3.18,3.18,0,0,1-3.22-3.23Z"/><path class="cls-4" d="M1444.31,688.9a4.07,4.07,0,0,1-.34.29.63.63,0,0,1-.43.13,1.81,1.81,0,0,1-1-.48,13.13,13.13,0,0,0-1.63-1,13.48,13.48,0,0,0-2.53-1,12.47,12.47,0,0,0-3.7-.47,12.69,12.69,0,0,0-5.34,1.06,10.71,10.71,0,0,0-3.92,3.07,14.26,14.26,0,0,0-2.44,4.83,25.15,25.15,0,0,0,0,12.89,13.9,13.9,0,0,0,2.44,4.78,10.33,10.33,0,0,0,3.81,2.95,11.89,11.89,0,0,0,5,1,12.83,12.83,0,0,0,4.22-.6,13.4,13.4,0,0,0,2.8-1.29,12.81,12.81,0,0,0,1.75-1.3,1.82,1.82,0,0,1,1-.59.81.81,0,0,1,.7.35l.91,1.12a10,10,0,0,1-2,2,14,14,0,0,1-2.77,1.58,17.39,17.39,0,0,1-3.34,1,19.18,19.18,0,0,1-3.76.37,15,15,0,0,1-6.08-1.21,13.25,13.25,0,0,1-4.73-3.5,16.52,16.52,0,0,1-3.08-5.62,24.17,24.17,0,0,1-1.1-7.57,23.84,23.84,0,0,1,1-7.28,16.28,16.28,0,0,1,3.06-5.67,13.86,13.86,0,0,1,4.94-3.7,16.33,16.33,0,0,1,6.71-1.31,15.9,15.9,0,0,1,6,1.08,14.93,14.93,0,0,1,4.6,3Z"/><path class="cls-4" d="M1478.34,683.68a16.66,16.66,0,0,1,6.71,1.28,13.75,13.75,0,0,1,5,3.62,16.29,16.29,0,0,1,3.1,5.66,26.33,26.33,0,0,1,0,14.79,16.19,16.19,0,0,1-3.1,5.64,13.73,13.73,0,0,1-5,3.61,18.47,18.47,0,0,1-13.41,0,13.72,13.72,0,0,1-5-3.61,15.76,15.76,0,0,1-3.12-5.64,26.09,26.09,0,0,1,0-14.79,15.85,15.85,0,0,1,3.12-5.66,13.74,13.74,0,0,1,5-3.62A16.58,16.58,0,0,1,1478.34,683.68Zm0,33.23a13,13,0,0,0,5.45-1.07,10.29,10.29,0,0,0,3.88-3.06A13.45,13.45,0,0,0,1490,708a26.24,26.24,0,0,0,0-12.62,13.6,13.6,0,0,0-2.33-4.85,10.39,10.39,0,0,0-3.88-3.1,14.27,14.27,0,0,0-10.89,0,10.35,10.35,0,0,0-3.89,3.1,14,14,0,0,0-2.35,4.85,25.91,25.91,0,0,0,0,12.62,13.82,13.82,0,0,0,2.35,4.82,10.25,10.25,0,0,0,3.89,3.06A12.94,12.94,0,0,0,1478.34,716.91Z"/><path class="cls-4" d="M1514.79,719.08V684.24h1.82a.94.94,0,0,1,1.05.87l.32,5a21.85,21.85,0,0,1,2.17-2.63,14.38,14.38,0,0,1,2.47-2,11.78,11.78,0,0,1,2.8-1.33,10.45,10.45,0,0,1,3.13-.47,8.36,8.36,0,0,1,6.1,2.22,11.68,11.68,0,0,1,3.08,6.18,12.11,12.11,0,0,1,1.77-3.74,10.92,10.92,0,0,1,2.6-2.61,10.76,10.76,0,0,1,3.2-1.54,12.44,12.44,0,0,1,3.55-.51,11.89,11.89,0,0,1,4.65.86,9.3,9.3,0,0,1,3.51,2.53,11.49,11.49,0,0,1,2.22,4.14,18.77,18.77,0,0,1,.77,5.6v22.27h-3.33V696.81q0-5.12-2.2-7.79a7.69,7.69,0,0,0-6.31-2.68,9.36,9.36,0,0,0-3.48.66,8.58,8.58,0,0,0-2.94,2,9.55,9.55,0,0,0-2,3.28,12.69,12.69,0,0,0-.75,4.55v22.27h-3.33V696.81c0-3.38-.68-6-2-7.77a7,7,0,0,0-5.92-2.7,9,9,0,0,0-5.25,1.7,16.06,16.06,0,0,0-4.31,4.71v26.33Z"/></svg>