<svg id="Capa_3" data-name="Capa 3" xmlns="http://www.w3.org/2000/svg" viewBox="0 0 1920 1080"><defs><style>.cls-1{fill:#fff;}</style></defs><path class="cls-1" d="M760,369.59a10,10,0,1,1,10,10A10,10,0,0,1,760,369.59Zm480.14,56.92h0a20,20,0,0,0-40,0h0v17.12a10,10,0,0,1-20-.23v1.33a20,20,0,0,0-18.63-19.94c-.46,0-.92-.07-1.39-.07a20,20,0,0,0-20,20h0v61.6h0v73.11a59.92,59.92,0,0,1-59.91,59.92v.14A79.9,79.9,0,0,1,1000.18,564V434.76A40,40,0,0,0,964.71,395l-.73-.09-1.29-.1q-1.12-.07-2.25-.09h-.77c-.76,0-1.51,0-2.26.09l-1.28.1c-.25,0-.5.06-.74.09a40,40,0,0,0-35.46,39.74v.11h0V558.05c0-1.08,0-2.15-.11-3.21V564a79.9,79.9,0,0,1-79.93,75.48v-.14A59.92,59.92,0,0,1,780,579.45V414.71a10,10,0,0,0-20,0v5.93l-.07,16.42v37.72a10,10,0,1,1-20,0V434.39a30.06,30.06,0,0,0-60.11.37V559.43c0,2.16.06,4.31.14,6.45A160.14,160.14,0,0,0,734,679.54,161.69,161.69,0,0,0,756.27,696a159.26,159.26,0,0,0,77.17,23.41c2.14.08,4.29.14,6.45.14s4.31-.06,6.45-.14A160.17,160.17,0,0,0,959.86,665.5l.14-.16a159.77,159.77,0,0,0,113.66,54.1c2.14.08,4.29.14,6.45.14s4.31-.06,6.45-.14a159.31,159.31,0,0,0,77.06-23.34,161,161,0,0,0,22.4-16.56,159.92,159.92,0,0,0,53-100.09q.81-6.56,1.09-13.27c0-.1,0-.2,0-.3.08-2.14.14-4.28.14-6.45s-.06-4.51-.15-6.75ZM1160,403.66a20,20,0,1,0-20-20A20,20,0,0,0,1160,403.66Z"/></svg>